<?xml version="1.0" encoding="utf-8"?><svg xmlns="http://www.w3.org/2000/svg" xmlns:xlink="http://www.w3.org/1999/xlink"><symbol viewBox="0 0 17 9" id="downArrow" xmlns="http://www.w3.org/2000/svg"><path d="M.865.499a.623.623 0 01.88-.004L8.93 7.621a.623.623 0 01-.877.884L.869 1.379A.623.623 0 01.865.5z"/><path d="M16.162.499a.623.623 0 00-.88-.004L8.097 7.621a.623.623 0 10.877.884l7.183-7.126a.623.623 0 00.004-.88z"/></symbol><symbol viewBox="0 0 22 14" id="employee" xmlns="http://www.w3.org/2000/svg"><path d="M15.5 8c-1.2 0-3.07.34-4.5 1-1.43-.67-3.3-1-4.5-1C4.33 8 0 9.08 0 11.25V14h22v-2.75C22 9.08 17.67 8 15.5 8zm-4 4.5h-10v-1.25c0-.54 2.56-1.75 5-1.75s5 1.21 5 1.75v1.25zm9 0H13v-1.25c0-.46-.2-.86-.52-1.22.88-.3 1.96-.53 3.02-.53 2.44 0 5 1.21 5 1.75v1.25zM6.5 7C8.43 7 10 5.43 10 3.5S8.43 0 6.5 0 3 1.57 3 3.5 4.57 7 6.5 7zm0-5.5c1.1 0 2 .9 2 2s-.9 2-2 2-2-.9-2-2 .9-2 2-2zm9 5.5C17.43 7 19 5.43 19 3.5S17.43 0 15.5 0 12 1.57 12 3.5 13.57 7 15.5 7zm0-5.5c1.1 0 2 .9 2 2s-.9 2-2 2-2-.9-2-2 .9-2 2-2z"/></symbol><symbol viewBox="0 0 17 19" id="events" xmlns="http://www.w3.org/2000/svg"><path d="M4 0h1a1 1 0 011 1v1h5V1a1 1 0 011-1h1a1 1 0 011 1v1a3 3 0 013 3v11a3 3 0 01-3 3H3a3 3 0 01-3-3V5a3 3 0 013-3V1a1 1 0 011-1zm8 2h1V1h-1v1zM5 2V1H4v1h1zM3 3a2 2 0 00-2 2v1h15V5a2 2 0 00-2-2H3zM1 16a2 2 0 002 2h11a2 2 0 002-2V7H1v9zm8-5h5v5H9v-5zm1 1v3h3v-3h-3z"/></symbol><symbol viewBox="0 0 17 20" id="fertilizers" xmlns="http://www.w3.org/2000/svg"><path d="M3 3h2.5a3 3 0 116 0H14a3 3 0 013 3v11a3 3 0 01-3 3H3a3 3 0 01-3-3V6a3 3 0 013-3zm0 1a2 2 0 00-2 2v11a2 2 0 002 2h11a2 2 0 002-2V6a2 2 0 00-2-2h-1v3H4V4H3zm2 2h7V4H5v2zm3.5-5a2 2 0 00-2 2h4a2 2 0 00-2-2zm5.65 8.6L7 16.75l-3.2-3.2.707-.707L7 15.336l6.442-6.443.707.707h.001z"/></symbol><symbol viewBox="0 0 18 18" id="home" xmlns="http://www.w3.org/2000/svg"><path d="M17.429 7.904L9.419.17a.6.6 0 00-.838 0L.57 7.903a.604.604 0 00.42 1.039h1.064v8.454c0 .334.27.604.604.604h4.228c.333 0 .603-.27.603-.604v-4.831h3.02v4.831c0 .334.27.604.604.604h4.227c.333 0 .604-.27.604-.604V8.942h1.064a.604.604 0 00.42-1.038zm-1.484.434a.604.604 0 00-.604.604v8.454h-4.227v-4.831a.604.604 0 00-.604-.604H7.49a.604.604 0 00-.603.604v4.831H2.659V8.942a.604.604 0 00-.604-.604H.991L9.001.605l8.011 7.733h-1.067z"/></symbol><symbol class="fbi fbi-list" viewBox="0 0 16 16" id="list" xmlns="http://www.w3.org/2000/svg"><path fill-rule="evenodd" d="M2.5 12a.5.5 0 01.5-.5h10a.5.5 0 010 1H3a.5.5 0 01-.5-.5zm0-4a.5.5 0 01.5-.5h10a.5.5 0 010 1H3a.5.5 0 01-.5-.5zm0-4a.5.5 0 01.5-.5h10a.5.5 0 010 1H3a.5.5 0 01-.5-.5z"/></symbol><symbol viewBox="0 0 19 13" id="mail" xmlns="http://www.w3.org/2000/svg"><path d="M17.443 0h-16.2c-.497 0-.9.416-.9.929V12.07c0 .196.06.386.17.543.17.242.44.386.73.386h16.2c.288 0 .56-.143.729-.384a.94.94 0 00.17-.545V.93c0-.513-.402-.929-.9-.929zM.943 11.894V2.035l6.184 4.93-6.184 4.93zm.37.487l6.305-5.025 1.175.936a.878.878 0 001.1 0l1.175-.936 6.304 5.025H1.313zm16.43-.487l-6.185-4.93 6.185-4.929v9.86zm0-10.64L9.526 7.801a.293.293 0 01-.366 0L.943 1.253V.93c0-.171.134-.31.3-.31h16.2c.166 0 .3.139.3.31v.324z"/></symbol><symbol viewBox="0 0 20 19" id="notes" xmlns="http://www.w3.org/2000/svg"><path d="M1 16a2 2 0 002 2h6.764A2.99 2.99 0 019 16H1zm11 2a2 2 0 002-2V3c0-.768.289-1.47.764-2H6a2 2 0 00-2 2v12h6v1a2 2 0 002 2zM3 3a3 3 0 013-3h11a3 3 0 013 3v2h-5v11a3 3 0 01-3 3H3a3 3 0 01-3-3v-1h3V3zm16 1V3a2 2 0 10-4 0v1h4z"/></symbol><symbol viewBox="0 0 23 17" id="organizations" xmlns="http://www.w3.org/2000/svg"><path d="M14 0l-3 3H3a3 3 0 00-3 3v3a3 3 0 003 3v3a2 2 0 002 2h1a2 2 0 002-2v-3h3l3 3h2V0h-2zm.414 1H15v13h-.586l-3-3H3a2 2 0 01-2-2V6a2 2 0 012-2h8.414l3-3zM18 3v1.008a3.5 3.5 0 010 6.93v1.007A4.5 4.5 0 0018 3zm0 3.059v2.828a1.5 1.5 0 000-2.828zM4 12h3v3a1 1 0 01-1 1H5a1 1 0 01-1-1v-3z"/></symbol><symbol viewBox="0 0 16 16" id="phone" xmlns="http://www.w3.org/2000/svg"><path d="M15.58 12.343l-3.238-2.16a.945.945 0 00-1.266.206l-.943 1.212a.403.403 0 01-.517.11l-.18-.1c-.595-.324-1.335-.728-2.826-2.22C5.119 7.9 4.714 7.16 4.39 6.566l-.098-.18a.404.404 0 01.106-.518l1.212-.943a.946.946 0 00.206-1.266L3.656.42A.94.94 0 002.39.135L1.035.948a1.91 1.91 0 00-.871 1.13C-.324 3.855.043 6.922 4.56 11.44 8.154 15.033 10.83 16 12.667 16c.423.002.845-.053 1.253-.164.476-.133.88-.445 1.13-.87l.815-1.354a.94.94 0 00-.285-1.268zm-.174.994l-.813 1.354c-.18.307-.47.533-.813.63-1.64.45-4.506.078-8.843-4.259C.601 6.726.227 3.86.678 2.22a1.38 1.38 0 01.631-.815L2.663.593a.408.408 0 01.55.124l1.174 1.76.984 1.478a.41.41 0 01-.089.549l-1.212.943a.933.933 0 00-.247 1.198l.096.175c.34.625.764 1.402 2.311 2.949 1.547 1.546 2.324 1.97 2.949 2.31l.175.097a.933.933 0 001.198-.247l.943-1.213a.41.41 0 01.549-.089l3.238 2.16c.182.12.236.363.124.55z"/></symbol><symbol viewBox="0 0 28 28" id="plus" xmlns="http://www.w3.org/2000/svg"><path d="M13.923 0L9.615 28M28 13.923L0 9.615"/></symbol><symbol viewBox="0 0 17 18" id="profile" xmlns="http://www.w3.org/2000/svg"><path d="M8.5.611C3.813.611 0 4.424 0 9.111a8.46 8.46 0 001.948 5.408c.003.005.003.01.006.014a8.498 8.498 0 003.21 2.395l.042.018c.1.042.2.081.301.12l.12.044a8.494 8.494 0 001.328.357l.194.035c.09.015.18.026.27.037a4.805 4.805 0 00.481.048c.048.003.096.009.144.011a8.085 8.085 0 00.912 0c.049-.002.096-.007.144-.01.103-.008.206-.015.308-.026.058-.006.116-.015.174-.022.09-.012.18-.023.27-.037.064-.01.129-.023.194-.035a8.469 8.469 0 00.66-.149 8.418 8.418 0 00.668-.209l.12-.044a8.7 8.7 0 00.3-.119l.042-.018a8.499 8.499 0 003.21-2.395c.004-.004.004-.01.007-.014A8.465 8.465 0 0017 9.11c0-4.687-3.813-8.5-8.5-8.5zm3.444 15.646l-.012.006a8.224 8.224 0 01-.308.14l-.07.03a7.43 7.43 0 01-.793.281 7.09 7.09 0 01-.412.11c-.067.016-.133.033-.2.047l-.221.042c-.06.011-.12.023-.18.032a8.027 8.027 0 01-.25.034c-.053.007-.106.015-.16.02-.095.01-.191.017-.287.024-.043.003-.086.008-.13.01a8.003 8.003 0 01-.843 0c-.043-.002-.085-.007-.128-.01A7.602 7.602 0 017.662 17l-.16-.02a8.027 8.027 0 01-.25-.035l-.18-.032a8.33 8.33 0 01-.22-.042 5.856 5.856 0 01-.2-.046c-.064-.016-.127-.03-.19-.047a7.913 7.913 0 01-.625-.195l-.116-.042a7.502 7.502 0 01-.275-.109l-.07-.03a8 8 0 01-.32-.145 7.97 7.97 0 01-2.57-1.982 6.254 6.254 0 014.092-4.289c.04.024.08.046.121.068.024.014.047.028.072.04.084.045.17.087.257.125.067.03.137.054.206.08l.04.015a3.67 3.67 0 001.226.214c.43 0 .841-.078 1.225-.214l.04-.015c.07-.026.14-.05.207-.08a3.53 3.53 0 00.257-.124l.072-.04c.04-.023.082-.045.121-.07a6.255 6.255 0 014.093 4.29 7.981 7.981 0 01-2.57 1.982zm-6.56-9.413A3.12 3.12 0 018.5 3.728a3.12 3.12 0 013.117 3.116A3.115 3.115 0 019.848 9.65l-.042.02a3.188 3.188 0 01-2.612 0l-.042-.02a3.115 3.115 0 01-1.768-2.806zm9.556 6.892a6.827 6.827 0 00-3.98-4.158 3.672 3.672 0 001.223-2.734A3.688 3.688 0 008.5 3.161a3.688 3.688 0 00-3.683 3.683A3.67 3.67 0 006.04 9.578a6.828 6.828 0 00-3.98 4.158A7.887 7.887 0 01.567 9.11c0-4.374 3.559-7.933 7.933-7.933s7.933 3.559 7.933 7.933a7.888 7.888 0 01-1.493 4.625z"/></symbol><symbol viewBox="0 0 34 34" id="settings" xmlns="http://www.w3.org/2000/svg"><mask id="ma" maskUnits="userSpaceOnUse" x="0" y="0" width="34" height="34"><path d="M0 0h34v34H0z"/><path d="M31.4 13.8h-3.663a10.89 10.89 0 00-.888-2.124l2.597-2.598a1.595 1.595 0 00.003-2.256l-.003-.002-2.266-2.266a1.6 1.6 0 00-2.258 0L22.324 7.15a10.907 10.907 0 00-2.124-.887V2.6A1.6 1.6 0 0018.6 1h-3.2a1.6 1.6 0 00-1.6 1.6v3.664c-.737.22-1.45.517-2.124.887L9.078 4.554a1.6 1.6 0 00-2.258 0L4.554 6.82a1.595 1.595 0 00-.003 2.256l.003.002 2.597 2.598c-.37.675-.667 1.387-.888 2.124H2.6A1.6 1.6 0 001 15.4v3.2a1.6 1.6 0 001.6 1.6h3.663c.22.737.518 1.45.888 2.124l-2.597 2.598a1.595 1.595 0 00-.003 2.255l.003.003 2.266 2.266a1.6 1.6 0 002.258 0l2.598-2.597c.675.37 1.387.667 2.124.887V31.4a1.6 1.6 0 001.6 1.6h3.2a1.6 1.6 0 001.6-1.6v-3.664c.737-.22 1.45-.517 2.124-.887l2.598 2.597a1.6 1.6 0 002.258 0l2.266-2.266a1.595 1.595 0 00.003-2.256l-.003-.002-2.597-2.598c.37-.675.668-1.387.887-2.124H31.4a1.6 1.6 0 001.6-1.6v-3.2a1.6 1.6 0 00-1.6-1.6zm.533 4.8a.533.533 0 01-.533.533h-4.07a.533.533 0 00-.516.4 9.854 9.854 0 01-1.088 2.607.533.533 0 00.08.65l2.886 2.886c.207.206.208.54.002.748l-.002.002-2.266 2.266a.541.541 0 01-.75 0l-2.886-2.885a.533.533 0 00-.65-.081 9.878 9.878 0 01-2.606 1.088.533.533 0 00-.4.517V31.4a.533.533 0 01-.534.533h-3.2a.533.533 0 01-.533-.533v-4.07a.533.533 0 00-.4-.516 9.878 9.878 0 01-2.607-1.088.533.533 0 00-.65.08l-2.886 2.886a.541.541 0 01-.75 0l-2.266-2.267a.529.529 0 010-.747l2.885-2.885a.533.533 0 00.081-.65 9.852 9.852 0 01-1.088-2.607.533.533 0 00-.517-.403H2.6a.533.533 0 01-.533-.533v-3.2c0-.295.238-.533.533-.533h4.07a.533.533 0 00.516-.4 9.852 9.852 0 011.088-2.607.533.533 0 00-.08-.65L5.307 8.324a.529.529 0 010-.747L7.574 5.31a.541.541 0 01.75 0l2.886 2.886c.172.172.44.205.65.08a9.88 9.88 0 012.606-1.09.531.531 0 00.4-.517V2.6c0-.295.24-.533.534-.533h3.2c.294 0 .533.238.533.533v4.07c0 .243.165.456.4.516a9.882 9.882 0 012.607 1.088c.21.125.478.092.65-.08l2.886-2.886a.541.541 0 01.75 0l2.266 2.267c.207.206.208.54.002.747l-.002.002-2.885 2.886a.533.533 0 00-.081.65c.486.812.852 1.69 1.088 2.606.06.236.273.4.517.4H31.4c.295 0 .533.24.533.534v3.2z"/></mask><path d="M31.4 13.8h-3.663a10.89 10.89 0 00-.888-2.124l2.597-2.598a1.595 1.595 0 00.003-2.256l-.003-.002-2.266-2.266a1.6 1.6 0 00-2.258 0L22.324 7.15a10.907 10.907 0 00-2.124-.887V2.6A1.6 1.6 0 0018.6 1h-3.2a1.6 1.6 0 00-1.6 1.6v3.664c-.737.22-1.45.517-2.124.887L9.078 4.554a1.6 1.6 0 00-2.258 0L4.554 6.82a1.595 1.595 0 00-.003 2.256l.003.002 2.597 2.598c-.37.675-.667 1.387-.888 2.124H2.6A1.6 1.6 0 001 15.4v3.2a1.6 1.6 0 001.6 1.6h3.663c.22.737.518 1.45.888 2.124l-2.597 2.598a1.595 1.595 0 00-.003 2.255l.003.003 2.266 2.266a1.6 1.6 0 002.258 0l2.598-2.597c.675.37 1.387.667 2.124.887V31.4a1.6 1.6 0 001.6 1.6h3.2a1.6 1.6 0 001.6-1.6v-3.664c.737-.22 1.45-.517 2.124-.887l2.598 2.597a1.6 1.6 0 002.258 0l2.266-2.266a1.595 1.595 0 00.003-2.256l-.003-.002-2.597-2.598c.37-.675.668-1.387.887-2.124H31.4a1.6 1.6 0 001.6-1.6v-3.2a1.6 1.6 0 00-1.6-1.6zm.533 4.8a.533.533 0 01-.533.533h-4.07a.533.533 0 00-.516.4 9.854 9.854 0 01-1.088 2.607.533.533 0 00.08.65l2.886 2.886c.207.206.208.54.002.748l-.002.002-2.266 2.266a.541.541 0 01-.75 0l-2.886-2.885a.533.533 0 00-.65-.081 9.878 9.878 0 01-2.606 1.088.533.533 0 00-.4.517V31.4a.533.533 0 01-.534.533h-3.2a.533.533 0 01-.533-.533v-4.07a.533.533 0 00-.4-.516 9.878 9.878 0 01-2.607-1.088.533.533 0 00-.65.08l-2.886 2.886a.541.541 0 01-.75 0l-2.266-2.267a.529.529 0 010-.747l2.885-2.885a.533.533 0 00.081-.65 9.852 9.852 0 01-1.088-2.607.533.533 0 00-.517-.403H2.6a.533.533 0 01-.533-.533v-3.2c0-.295.238-.533.533-.533h4.07a.533.533 0 00.516-.4 9.852 9.852 0 011.088-2.607.533.533 0 00-.08-.65L5.307 8.324a.529.529 0 010-.747L7.574 5.31a.541.541 0 01.75 0l2.886 2.886c.172.172.44.205.65.08a9.88 9.88 0 012.606-1.09.531.531 0 00.4-.517V2.6c0-.295.24-.533.534-.533h3.2c.294 0 .533.238.533.533v4.07c0 .243.165.456.4.516a9.882 9.882 0 012.607 1.088c.21.125.478.092.65-.08l2.886-2.886a.541.541 0 01.75 0l2.266 2.267c.207.206.208.54.002.747l-.002.002-2.885 2.886a.533.533 0 00-.081.65c.486.812.852 1.69 1.088 2.606.06.236.273.4.517.4H31.4c.295 0 .533.24.533.534v3.2z"/><path d="M31.4 13.8h-3.663a10.89 10.89 0 00-.888-2.124l2.597-2.598a1.595 1.595 0 00.003-2.256l-.003-.002-2.266-2.266a1.6 1.6 0 00-2.258 0L22.324 7.15a10.907 10.907 0 00-2.124-.887V2.6A1.6 1.6 0 0018.6 1h-3.2a1.6 1.6 0 00-1.6 1.6v3.664c-.737.22-1.45.517-2.124.887L9.078 4.554a1.6 1.6 0 00-2.258 0L4.554 6.82a1.595 1.595 0 00-.003 2.256l.003.002 2.597 2.598c-.37.675-.667 1.387-.888 2.124H2.6A1.6 1.6 0 001 15.4v3.2a1.6 1.6 0 001.6 1.6h3.663c.22.737.518 1.45.888 2.124l-2.597 2.598a1.595 1.595 0 00-.003 2.255l.003.003 2.266 2.266a1.6 1.6 0 002.258 0l2.598-2.597c.675.37 1.387.667 2.124.887V31.4a1.6 1.6 0 001.6 1.6h3.2a1.6 1.6 0 001.6-1.6v-3.664c.737-.22 1.45-.517 2.124-.887l2.598 2.597a1.6 1.6 0 002.258 0l2.266-2.266a1.595 1.595 0 00.003-2.256l-.003-.002-2.597-2.598c.37-.675.668-1.387.887-2.124H31.4a1.6 1.6 0 001.6-1.6v-3.2a1.6 1.6 0 00-1.6-1.6zm.533 4.8a.533.533 0 01-.533.533h-4.07a.533.533 0 00-.516.4 9.854 9.854 0 01-1.088 2.607.533.533 0 00.08.65l2.886 2.886c.207.206.208.54.002.748l-.002.002-2.266 2.266a.541.541 0 01-.75 0l-2.886-2.885a.533.533 0 00-.65-.081 9.878 9.878 0 01-2.606 1.088.533.533 0 00-.4.517V31.4a.533.533 0 01-.534.533h-3.2a.533.533 0 01-.533-.533v-4.07a.533.533 0 00-.4-.516 9.878 9.878 0 01-2.607-1.088.533.533 0 00-.65.08l-2.886 2.886a.541.541 0 01-.75 0l-2.266-2.267a.529.529 0 010-.747l2.885-2.885a.533.533 0 00.081-.65 9.852 9.852 0 01-1.088-2.607.533.533 0 00-.517-.403H2.6a.533.533 0 01-.533-.533v-3.2c0-.295.238-.533.533-.533h4.07a.533.533 0 00.516-.4 9.852 9.852 0 011.088-2.607.533.533 0 00-.08-.65L5.307 8.324a.529.529 0 010-.747L7.574 5.31a.541.541 0 01.75 0l2.886 2.886c.172.172.44.205.65.08a9.88 9.88 0 012.606-1.09.531.531 0 00.4-.517V2.6c0-.295.24-.533.534-.533h3.2c.294 0 .533.238.533.533v4.07c0 .243.165.456.4.516a9.882 9.882 0 012.607 1.088c.21.125.478.092.65-.08l2.886-2.886a.541.541 0 01.75 0l2.266 2.267c.207.206.208.54.002.747l-.002.002-2.885 2.886a.533.533 0 00-.081.65c.486.812.852 1.69 1.088 2.606.06.236.273.4.517.4H31.4c.295 0 .533.24.533.534v3.2z" mask="url(#ma)"/><path d="M17 11.567A5.433 5.433 0 1022.433 17 5.44 5.44 0 0017 11.567zm0 9.6a4.167 4.167 0 110-8.334 4.167 4.167 0 010 8.334z"/></symbol><symbol viewBox="0 0 16 16" id="star" xmlns="http://www.w3.org/2000/svg"><path d="M15.236 5.865l-4.612-.705L8.558.758c-.155-.33-.694-.33-.849 0L5.643 5.16l-4.611.705a.469.469 0 00-.264.79l3.35 3.434-.792 4.854a.47.47 0 00.689.486l4.119-2.276 4.118 2.277a.47.47 0 00.69-.486l-.792-4.855 3.35-3.433a.47.47 0 00-.264-.791z"/></symbol><symbol viewBox="0 0 19 19" id="stats" xmlns="http://www.w3.org/2000/svg"><path d="M10 0h1a8 8 0 018 8v1h-9V0zm1 8h7a7 7 0 00-7-7v7zm-3 3h8a8 8 0 11-8-8v8zm-1 1V4.07A7.002 7.002 0 008 18a7.001 7.001 0 006.93-6H7z"/></symbol><symbol viewBox="0 0 20 20" id="weather" xmlns="http://www.w3.org/2000/svg"><path d="M3.323 13.782a.625.625 0 01.395.79l-.625 1.875a.626.626 0 11-1.185-.395l.625-1.875a.625.625 0 01.79-.395zm11.875 0a.625.625 0 01.395.79l-.625 1.875a.624.624 0 11-1.185-.395l.625-1.875a.625.625 0 01.79-.395zm-9.375 1.875a.625.625 0 01.395.79l-.625 1.875a.626.626 0 11-1.185-.395l.625-1.875a.625.625 0 01.79-.395zm11.875 0a.625.625 0 01.395.79l-.625 1.875a.624.624 0 11-1.185-.395l.625-1.875a.625.625 0 01.79-.395zm-.941-10.623A6.25 6.25 0 004.883 3.779a4.375 4.375 0 10-.507 8.72H16.25a3.75 3.75 0 00.506-7.465zM10.626 1.25a5 5 0 014.97 4.444.625.625 0 00.625.556h.03a2.5 2.5 0 010 5H4.376a3.126 3.126 0 11.756-6.158.625.625 0 00.745-.41 5.002 5.002 0 014.749-3.432zM8.817 14.095a.625.625 0 01.559-.345h1.25a.626.626 0 01.592.822l-.35 1.053h1.008a.625.625 0 01.487 1.015l-2.5 3.125a.625.625 0 01-1.094-.541l.432-1.724H8.126a.625.625 0 01-.559-.905l1.25-2.5z"/></symbol></svg>